HIERARCHY
ROOT Hips
{
    OFFSET 0.000000 0.000000 0.000000
    CHANNELS 6 Xposition Yposition Zposition Zrotation Xrotation Yrotation
    JOINT Spine
    {
        OFFSET -0.000000 7.925200 0.000000
        CHANNELS 3 Zrotation Xrotation Yrotation
        JOINT Spine1
        {
            OFFSET -0.000000 23.364719 0.000000
            CHANNELS 3 Zrotation Xrotation Yrotation
            JOINT Neck
            {
                OFFSET -0.000000 23.268766 2.115342
                CHANNELS 3 Zrotation Xrotation Yrotation
                JOINT Head
                {
                    OFFSET -0.000000 13.530829 -1.932976
                    CHANNELS 3 Zrotation Xrotation Yrotation
                    End Site
                    {
                        OFFSET -0.000000 24.162195 0.000000
                    }
                }
            }
            JOINT LeftShoulder
            {
                OFFSET 3.858291 22.792089 -0.033814
                CHANNELS 3 Zrotation Xrotation Yrotation
                JOINT LeftArm
                {
                    OFFSET 7.057024 0.000000 0.000000
                    CHANNELS 3 Zrotation Xrotation Yrotation
                    JOINT LeftForeArm
                    {
                        OFFSET 34.734173 0.000000 0.000000
                        CHANNELS 3 Zrotation Xrotation Yrotation
                        JOINT LeftHand
                        {
                            OFFSET 23.943203 0.000000 0.000000
                            CHANNELS 3 Zrotation Xrotation Yrotation
                            End Site
                            {
                                OFFSET 14.497317 0.000000 0.000000
                            }
                        }
                    }
                }
            }
            JOINT RightShoulder
            {
                OFFSET -3.868823 22.792089 -0.033814
                CHANNELS 3 Zrotation Xrotation Yrotation
                JOINT RightArm
                {
                    OFFSET -7.057024 0.000000 0.000000
                    CHANNELS 3 Zrotation Xrotation Yrotation
                    JOINT RightForeArm
                    {
                        OFFSET -34.734173 0.000000 0.000000
                        CHANNELS 3 Zrotation Xrotation Yrotation
                        JOINT RightHand
                        {
                            OFFSET -23.943203 0.000000 0.000000
                            CHANNELS 3 Zrotation Xrotation Yrotation
                            End Site
                            {
                                OFFSET -14.497317 0.000000 0.000000
                            }
                        }
                    }
                }
            }
        }
    }
    JOINT LeftUpLeg
    {
        OFFSET 9.664878 0.000000 0.000000
        CHANNELS 3 Zrotation Xrotation Yrotation
        JOINT LeftLeg
        {
            OFFSET -0.000000 -38.728706 0.000000
            CHANNELS 3 Zrotation Xrotation Yrotation
            JOINT LeftFoot
            {
                OFFSET -0.000000 -40.242161 0.000000
                CHANNELS 3 Zrotation Xrotation Yrotation
                JOINT LeftToeBase
                {
                    OFFSET -0.000000 -6.282171 14.497317
                    CHANNELS 3 Zrotation Xrotation Yrotation
                    End Site
                    {
                        OFFSET -0.000000 0.000000 3.865951
                    }
                }
            }
        }
    }
    JOINT RightUpLeg
    {
        OFFSET -9.664878 0.000000 0.000000
        CHANNELS 3 Zrotation Xrotation Yrotation
        JOINT RightLeg
        {
            OFFSET -0.000000 -38.728706 0.000000
            CHANNELS 3 Zrotation Xrotation Yrotation
            JOINT RightFoot
            {
                OFFSET -0.000000 -40.242161 0.000000
                CHANNELS 3 Zrotation Xrotation Yrotation
                JOINT RightToeBase
                {
                    OFFSET -0.000000 -6.282171 14.497317
                    CHANNELS 3 Zrotation Xrotation Yrotation
                    End Site
                    {
                        OFFSET -0.000000 0.000000 3.865951
                    }
                }
            }
        }
    }
}
MOTION
Frames:    7
Frame Time:    0.008333
123.283752    88.750954    1.935409    -0.579646    -1.126939    88.487114    2.542650    -4.052258    0.119639    -1.082137    1.090193    0.041584    -2.251667    19.219471    4.280124    -2.867812    0.990244    4.007039    15.412580    -1.474413    2.185219    -10.563684    1.383123    -8.634038    7.643246    -2.910440    -6.782374    -4.545696    -2.340531    -2.945777    -13.394434    1.111748    5.864678    11.141866    3.943775    9.108872    -2.557191    -3.983514    1.163340    4.357198    -3.840143    3.094033    2.824255    3.895798    -0.440278    -2.316456    -0.196679    -3.265745    -0.253069    -4.800385    10.851446    0.000000    0.000000    0.000000    1.978073    0.871246    2.038115    -1.433285    5.159875    0.656454    1.119759    -5.791132    -14.070750    0.000000    0.000000    0.000000    
123.285080    88.751717    1.932093    -0.582809    -1.122786    88.493401    2.534245    -4.054095    0.125371    -1.069336    1.086603    0.046941    -2.273860    19.235802    4.281157    -2.828163    0.975093    4.012087    15.412127    -1.473684    2.160812    -10.564414    1.351036    -8.624227    7.621541    -2.875305    -6.786551    -4.530951    -2.305655    -2.973834    -13.391466    1.111044    5.843489    11.132289    3.955703    9.111488    -2.562952    -3.997387    1.168535    4.358425    -3.853489    3.102731    2.813644    3.884522    -0.435032    -2.304509    -0.177460    -3.265881    -0.260675    -4.809677    10.835836    0.000000    0.000000    0.000000    1.969669    0.869322    2.030203    -1.431437    5.158262    0.669087    1.129111    -5.791257    -14.082257    0.000000    0.000000    0.000000    
123.287621    88.753311    1.929739    -0.577757    -1.122028    88.495476    2.550577    -4.061472    0.128759    -1.100018    1.110383    0.050220    -2.250266    19.224920    4.283590    -2.832729    0.984859    4.015140    15.447011    -1.478332    2.168840    -10.577572    1.400898    -8.636712    7.618202    -2.924500    -6.787933    -4.449564    -2.358816    -2.929501    -13.373333    1.093070    5.839096    11.131769    3.965098    9.104158    -2.570271    -4.010284    1.176984    4.333298    -3.866386    3.113856    2.809928    3.893517    -0.441690    -2.303418    -0.184984    -3.269113    -0.257778    -4.805580    10.843369    0.000000    0.000000    0.000000    1.966623    0.871842    2.030953    -1.432629    5.164371    0.674644    1.113854    -5.784997    -14.080236    0.000000    0.000000    0.000000    
123.287117    88.752342    1.926892    -0.586702    -1.118433    88.498543    2.549938    -4.063022    0.128770    -1.092718    1.099922    0.049173    -2.267652    19.220446    4.303098    -2.817489    1.000696    4.037505    15.428090    -1.488850    2.174004    -10.561470    1.414574    -8.642235    7.608122    -2.926760    -6.779060    -4.446772    -2.361391    -2.953793    -13.377706    1.106787    5.827798    11.119267    3.980774    9.117949    -2.564155    -4.014442    1.187357    4.299063    -3.872242    3.088970    2.808383    3.884707    -0.454094    -2.306001    -0.182794    -3.259558    -0.252773    -4.809583    10.835341    0.000000    0.000000    0.000000    1.958429    0.866194    2.034495    -1.425439    5.156693    0.663854    1.105887    -5.780324    -14.072914    0.000000    0.000000    0.000000    
123.288940    88.754051    1.926855    -0.591271    -1.119658    88.505104    2.540601    -4.072059    0.125993    -1.066753    1.104169    0.045806    -2.291961    19.230646    4.299757    -2.806844    0.985531    4.034157    15.419590    -1.500156    2.165835    -10.569212    1.414409    -8.629925    7.604906    -2.935596    -6.784023    -4.445925    -2.370275    -2.949190    -13.394022    1.100155    5.831628    11.120110    3.984493    9.114637    -2.559152    -3.996150    1.191232    4.289514    -3.854042    3.092560    2.812324    3.874092    -0.452896    -2.314048    -0.175368    -3.269489    -0.255808    -4.807981    10.842916    0.000000    0.000000    0.000000    1.965268    0.865016    2.045532    -1.433414    5.153594    0.627325    1.113438    -5.774355    -14.059896    0.000000    0.000000    0.000000    
123.293236    88.755127    1.926651    -0.580468    -1.125092    88.513008    2.576115    -4.063908    0.128423    -1.131904    1.105569    0.048319    -2.237926    19.232576    4.304045    -2.813616    0.988249    4.039275    15.466753    -1.485565    2.150106    -10.578111    1.401858    -8.623413    7.597795    -2.935316    -6.787570    -4.430464    -2.371344    -2.929453    -13.338144    1.089411    5.824841    11.103467    3.979187    9.110123    -2.551481    -3.978245    1.190243    4.281488    -3.836171    3.099957    2.816560    3.888138    -0.445357    -2.312224    -0.177112    -3.265102    -0.258372    -4.808189    10.827515    0.000000    0.000000    0.000000    1.968453    0.882082    2.039256    -1.429196    5.152375    0.637728    1.104224    -5.780628    -14.070750    0.000000    0.000000    0.000000    
123.287132    88.748718    1.919108    -0.615296    -1.124173    88.541115    2.561982    -4.093246    0.113686    -1.078786    1.108455    0.032755    -2.291833    19.225380    4.315020    -2.805823    0.965237    4.049816    15.443556    -1.499907    2.182604    -10.591464    1.392271    -8.647164    7.585579    -2.906096    -6.781384    -4.440026    -2.342245    -2.949100    -13.408928    1.092568    5.807229    11.108474    3.980147    9.144445    -2.515798    -3.990145    1.158676    4.280589    -3.848473    3.118364    2.810577    3.833368    -0.467696    -2.308832    -0.156777    -3.266929    -0.235571    -4.826170    10.828898    0.000000    0.000000    0.000000    1.957829    0.836330    2.020032    -1.416559    5.172992    0.659426    1.083158    -5.807837    -14.099799    0.000000    0.000000    0.000000    
